<svg width="150" height="92" viewBox="0 0 150 92" version="1.1" xmlns="http://www.w3.org/2000/svg" xmlns:xlink="http://www.w3.org/1999/xlink">
<title>dark text</title>
<desc>Created using Figma</desc>
<g id="Canvas" transform="translate(544 392)">
<g id="dark text">
<g id="Layer 2">
<g id="Layer 1">
<g id="Vector">
<use xlink:href="#path0_fill" transform="translate(-464.482 -391.738)" fill="url(#paint0_linear)"/>
</g>
<g id="Vector">
<use xlink:href="#path1_fill" transform="translate(-504.1 -391.772)" fill="url(#paint1_linear)"/>
</g>
<g id="Vector">
<use xlink:href="#path2_fill" transform="translate(-543.894 -392)" fill="url(#paint2_linear)"/>
</g>
<g id="Vector">
<use xlink:href="#path3_fill" transform="translate(-544 -332.181)" fill="#eeeeee"/>
</g>
<g id="Vector">
<use xlink:href="#path4_fill" transform="translate(-513.514 -332.128)" fill="#eeeeee"/>
</g>
<g id="Vector">
<use xlink:href="#path5_fill" transform="translate(-497.949 -332.181)" fill="#eeeeee"/>
</g>
<g id="Vector">
<use xlink:href="#path6_fill" transform="translate(-466.199 -332.168)" fill="#eeeeee"/>
</g>
<g id="Vector">
<use xlink:href="#path7_fill" transform="translate(-440.397 -339.772)" fill="#eeeeee"/>
</g>
<g id="Vector">
<use xlink:href="#path8_fill" transform="translate(-421.195 -332.181)" fill="#eeeeee"/>
</g>
</g>
</g>
</g>
</g>
<defs>
<linearGradient id="paint0_linear" x1="0" y1="0" x2="1" y2="0" gradientUnits="userSpaceOnUse" gradientTransform="matrix(70.4314 0 0 70.2901 0.0125524 -10.439)">
<stop offset="0" stop-color="#377BFF"/>
<stop offset="1" stop-color="#3F5DFD"/>
</linearGradient>
<linearGradient id="paint1_linear" x1="0" y1="0" x2="1" y2="0" gradientUnits="userSpaceOnUse" gradientTransform="matrix(66.2891 0 0 66.1562 0.00627619 -8.32773)">
<stop offset="0" stop-color="#3588FF"/>
<stop offset="1" stop-color="#3A70FF"/>
</linearGradient>
<linearGradient id="paint2_linear" x1="0" y1="0" x2="1" y2="0" gradientUnits="userSpaceOnUse" gradientTransform="matrix(66.1165 0 0 65.9839 0.00313809 -8.21757)">
<stop offset="0" stop-color="#47B0FE"/>
<stop offset="1" stop-color="#3B98FF"/>
</linearGradient>
<path id="path0_fill" d="M 69.9669 48.9431C 68.6082 48.3011 67.2211 47.7154 65.8874 47.0233C 61.8769 44.9375 58.1991 42.3945 55.1771 38.9965C 52.1551 35.5985 50.0149 31.6336 49.3246 27.0267C 48.9041 24.2081 48.8978 21.4427 49.6823 18.693C 50.448 16.0247 51.7597 13.6414 53.8497 11.7592C 56.583 9.28509 59.7619 8.24534 63.4366 9.04708C 64.1175 9.19427 64.7797 9.45108 65.4481 9.65152C 65.696 9.72668 65.9439 9.9459 66.2295 9.65152C 66.2395 9.55992 66.2395 9.46751 66.2295 9.37592C 65.9065 8.08196 65.3247 6.8665 64.5192 5.80253C 61.6949 2.14459 57.9292 0.299957 53.3539 0.0180948C 52.6792 -0.0226186 51.9982 0.0180948 51.3204 0.0180948C 50.2906 0.0368144 49.27 0.215376 48.2953 0.547369C 45.9323 1.26768 43.8831 2.56112 41.9814 4.10196C 38.7053 6.74834 35.9626 9.91772 33.405 13.228C 30.1037 17.4842 26.9092 21.8217 23.6487 26.106C 19.5033 31.5553 15.1413 36.8199 10.0984 41.4831C 7.13825 44.2344 3.92534 46.7017 0.502095 48.8523C 0.328066 48.9729 0.16047 49.1025 -1.91534e-06 49.2406L 0.0941419 49.4097L 70.4439 49.4097C 70.3432 49.2043 70.1748 49.0396 69.9669 48.9431L 69.9669 48.9431Z"/>
<path id="path1_fill" d="M 51.6154 35.22C 52.0798 34.7377 52.083 34.7251 51.7691 34.1176C 50.8487 32.3942 50.1517 30.5609 49.6949 28.662C 49.0265 25.7212 48.8225 22.7711 49.4595 19.8021C 50.1279 16.6891 51.5244 13.9582 53.8905 11.7816C 55.2808 10.4648 56.9942 9.53695 58.8581 9.09134C 61.0516 8.58974 63.3475 8.78689 65.423 9.65507C 65.709 9.74276 66.0004 9.81181 66.2954 9.86177C 66.1626 8.8551 65.832 7.88449 65.3226 7.00556C 64.1019 4.79138 62.2849 3.17537 60.1008 1.94771C 58.5845 1.10957 56.9366 0.534539 55.2273 0.247137C 53.4945 -0.0573782 51.7238 -0.0806442 49.9836 0.178238C 48.0973 0.498784 46.2974 1.20345 44.6959 2.24836C 42.0034 3.91134 39.7345 6.05663 37.6101 8.37103C 34.6351 11.603 31.9866 15.0981 29.3631 18.6089C 25.9771 23.1469 22.6351 27.7162 19.0074 32.0756C 13.6162 38.5679 7.7103 44.487 0.458162 48.9498C 0.289232 49.0956 0.135711 49.2582 4.78835e-07 49.4352C 0.417367 49.4603 0.677826 49.4916 0.941426 49.4916L 16.8986 49.4916C 22.0451 49.4916 27.1905 49.4916 32.3349 49.4916C 32.7863 49.525 33.2375 49.4236 33.631 49.2003C 35.746 47.8568 37.8862 46.5508 39.9856 45.1822C 44.3036 42.3667 48.0662 38.9218 51.6154 35.22Z"/>
<path id="path2_fill" d="M 51.3737 35.4601C 52.0014 34.7899 52.0233 34.7836 51.5903 33.9913C 50.3451 31.7258 49.5362 29.2475 49.2053 26.6848C 48.8562 24.4275 48.9125 22.1263 49.3716 19.8888C 50.0746 16.804 51.4114 14.0855 53.765 11.9246C 56.7368 9.17802 60.1981 8.27293 64.1207 9.33774C 64.764 9.51312 65.3948 9.74487 66.0318 9.9641C 66.1614 9.60114 66.1479 9.2026 65.9941 8.84918C 65.0928 6.20716 63.2931 3.96342 60.9073 2.50728C 58.2738 0.82569 55.2027 -0.0456223 52.0767 0.0018408C 50.6481 0.0208425 49.2321 0.271525 47.8842 0.744078C 45.5243 1.53955 43.472 2.87997 41.586 4.47718C 39.3137 6.45331 37.214 8.61894 35.3098 10.9506C 31.6759 15.2913 28.3903 19.9044 24.9824 24.4299C 21.7496 28.7991 18.2986 33.0031 14.6423 37.026C 10.8766 41.0973 6.77828 44.821 2.13077 47.8933C 1.42469 48.36 0.709209 48.8329 1.12227e-09 49.2807L 1.12227e-09 49.4749C 0.335776 49.4968 0.668414 49.5407 1.00419 49.5407L 23.4541 49.5407C 26.4165 49.5407 29.3757 49.5407 32.3381 49.5407C 32.8407 49.5647 33.3382 49.4299 33.7596 49.1555C 34.4218 48.7045 35.1121 48.2942 35.7868 47.8589C 37.745 46.6062 39.7502 45.3973 41.6488 44.0506C 45.1573 41.5029 48.4137 38.6263 51.3737 35.4601L 51.3737 35.4601Z"/>
<path id="path3_fill" d="M 16.1634 5.88152C 19.04 5.88152 21.3256 7.00166 23.0201 9.24194C 23.0428 9.27242 23.0715 9.29786 23.1045 9.31662C 23.1376 9.33537 23.1742 9.34704 23.212 9.35088C 23.2498 9.35471 23.288 9.35062 23.3241 9.33887C 23.3602 9.32712 23.3935 9.30798 23.4218 9.28266L 27.3884 5.60592C 27.439 5.56021 27.4706 5.49724 27.477 5.42941C 27.4834 5.36158 27.4641 5.29383 27.4229 5.2395C 25.2513 2.41462 21.6676 0 15.8465 0C 6.11837 0 -0.581459 7.39105 0.039884 17.2625C 0.551393 25.4052 7.86629 32.1448 16.0442 32.0696C 21.7555 32.0164 25.2827 29.6237 27.4292 26.827C 27.4704 26.7727 27.4897 26.7049 27.4833 26.6371C 27.4769 26.5693 27.4453 26.5063 27.3947 26.4606L 23.4187 22.7839C 23.3906 22.7584 23.3575 22.739 23.3215 22.727C 23.2855 22.715 23.2473 22.7106 23.2095 22.7142C 23.1717 22.7177 23.1351 22.7291 23.1019 22.7475C 23.0688 22.766 23.0399 22.7912 23.017 22.8214C 22.2292 23.8903 21.1951 24.7542 20.0022 25.3402C 18.8093 25.9261 17.4927 26.217 16.1634 26.1881C 10.5839 26.1881 6.9029 21.9477 6.9029 16.0035C 6.9029 10.0593 10.5839 5.88152 16.1634 5.88152Z"/>
<path id="path4_fill" d="M 16.6068 6.39907L 16.6068 0.163657C 16.6068 0.122958 16.5906 0.0839253 16.5618 0.0551463C 16.5329 0.0263673 16.4938 0.0101974 16.453 0.0101974C 12.6873 0.0101974 9.18834 -0.281057 6.92264 2.24944C 6.90169 2.27207 6.87441 2.28789 6.84434 2.29484C 6.81426 2.30178 6.78279 2.29954 6.75401 2.28839C 6.72523 2.27724 6.70049 2.2577 6.68299 2.23232C 6.66549 2.20694 6.65605 2.1769 6.6559 2.14609L 6.6559 0.862048C 6.6559 0.841895 6.65192 0.82194 6.64419 0.803322C 6.63646 0.784703 6.62514 0.767787 6.61086 0.753537C 6.59658 0.739287 6.57963 0.727984 6.56098 0.720272C 6.54232 0.71256 6.52232 0.708588 6.50213 0.708588L 0.153766 0.708588C 0.133573 0.708588 0.113578 0.71256 0.0949224 0.720272C 0.0762665 0.727984 0.0593159 0.739287 0.0450373 0.753537C 0.0307588 0.767787 0.0194331 0.784703 0.0117056 0.803322C 0.00397811 0.82194 4.78835e-07 0.841895 4.78835e-07 0.862048L 4.78835e-07 31.1058C 4.78835e-07 31.1465 0.0162005 31.1856 0.0450373 31.2144C 0.0738741 31.2431 0.112985 31.2593 0.153766 31.2593L 6.49899 31.2593C 6.53977 31.2593 6.57889 31.2431 6.60772 31.2144C 6.63656 31.1856 6.65276 31.1465 6.65276 31.1058L 6.65276 10.4923C 6.65301 10.4624 6.66171 10.4331 6.67786 10.4078C 8.03038 8.27189 11.7427 6.39907 14.5231 6.39907C 15.1635 6.39114 15.8033 6.44251 16.4342 6.55253C 16.456 6.55575 16.4783 6.55415 16.4994 6.54785C 16.5205 6.54155 16.54 6.5307 16.5564 6.51606C 16.5729 6.50143 16.5859 6.48337 16.5946 6.46315C 16.6033 6.44294 16.6075 6.42106 16.6068 6.39907L 16.6068 6.39907Z"/>
<path id="path5_fill" d="M 15.5304 0C 6.46761 0 0 7.14677 0 16.0035C 0 25.6808 6.84419 32.0696 16.0357 32.0696C 20.7867 32.0696 25.1801 30.629 28.2177 27.8668C 28.2852 27.8041 28.3278 27.7192 28.3376 27.6277C 28.3474 27.5363 28.3238 27.4443 28.2711 27.3688L 25.5629 23.4885C 25.5449 23.4651 25.5223 23.4457 25.4965 23.4314C 25.4707 23.417 25.4422 23.4081 25.4128 23.4052C 25.3834 23.4023 25.3537 23.4054 25.3256 23.4143C 25.2974 23.4232 25.2714 23.4378 25.2491 23.4572C 23.0681 25.4929 19.6319 26.6203 16.7355 26.6203C 11.1465 26.6203 7.70088 23.0595 7.02933 18.6373C 7.02217 18.5838 7.02657 18.5294 7.04222 18.4777C 7.05787 18.426 7.08441 18.3782 7.12007 18.3376C 7.15573 18.2969 7.19968 18.2644 7.24898 18.2421C 7.29828 18.2198 7.35178 18.2083 7.4059 18.2083L 30.2355 18.2083C 30.3362 18.2083 30.4328 18.1684 30.504 18.0973C 30.5752 18.0262 30.6152 17.9298 30.6152 17.8293L 30.6152 16.6299C 30.6152 7.01837 24.7219 0 15.5304 0ZM 23.746 13.5388L 7.33372 13.5388C 7.27916 13.5384 7.22529 13.5264 7.17575 13.5036C 7.12621 13.4808 7.08213 13.4476 7.04647 13.4064C 7.01081 13.3652 6.9844 13.3168 6.96899 13.2646C 6.95359 13.2123 6.94955 13.1574 6.95715 13.1035C 7.43414 9.47683 10.0482 5.44307 15.5304 5.44307C 21.3202 5.44307 23.8276 9.59584 24.1257 13.1222C 24.13 13.1747 24.1234 13.2275 24.1063 13.2774C 24.0892 13.3272 24.062 13.3729 24.0263 13.4118C 23.9907 13.4506 23.9474 13.4816 23.8991 13.5029C 23.8509 13.5243 23.7987 13.5354 23.746 13.5356L 23.746 13.5388Z"/>
<path id="path6_fill" d="M 13.8871 12.6995C 10.2752 11.8883 7.24062 11.2463 7.24062 9.03212C 7.24062 6.87744 9.43729 5.31153 12.9363 5.31153C 16.4949 5.31153 19.7208 6.69579 21.6256 8.58427C 21.6709 8.62954 21.7259 8.6639 21.7864 8.68473C 21.847 8.70556 21.9115 8.71231 21.9751 8.70446C 22.0387 8.6966 22.0996 8.67435 22.1533 8.63941C 22.2069 8.60447 22.2518 8.55776 22.2846 8.50284L 24.6068 4.60688C 24.6578 4.52186 24.6773 4.42165 24.6618 4.32377C 24.6463 4.22589 24.5969 4.13654 24.5221 4.07134C 21.7512 1.72249 17.907 -2.10265e-06 12.8735 -2.10265e-06C 5.14124 -2.10265e-06 0.829497 4.29996 0.829497 9.29832C 0.829497 16.1288 7.10568 17.5224 12.3651 18.6593C 16.1057 19.4829 19.338 20.1782 19.338 22.7087C 19.338 25.1139 17.3108 26.8207 13.316 26.8207C 9.55025 26.8207 5.52722 24.9417 3.27407 22.8715C 3.2287 22.8323 3.17545 22.8032 3.11788 22.7862C 3.0603 22.7692 2.99975 22.7647 2.94029 22.773C 2.88083 22.7813 2.82384 22.8022 2.77316 22.8343C 2.72247 22.8665 2.67926 22.9091 2.64645 22.9592L 0.0669373 27.0306C 0.0136854 27.1135 -0.00887055 27.2124 0.00316127 27.3102C 0.0151931 27.408 0.0610594 27.4985 0.132839 27.5661C 3.29918 30.51 7.94042 32.0696 12.999 32.0696C 21.2397 32.0696 25.7397 27.9576 25.7397 22.5803C 25.7554 15.3584 19.2125 13.8394 13.8871 12.6995Z"/>
<path id="path7_fill" d="M 17.7899 33.2347C 17.7716 33.1792 17.7406 33.1287 17.6993 33.0874C 17.658 33.046 17.6075 33.015 17.5519 32.9967C 17.4963 32.9784 17.4372 32.9734 17.3793 32.9821C 17.3214 32.9908 17.2664 33.0129 17.2187 33.0468C 16.4474 33.5309 15.5535 33.7851 14.6423 33.7796C 12.7407 33.7796 11.7271 32.2607 11.7271 30.1749L 11.7271 14.5378C 11.7271 14.4398 11.7661 14.3458 11.8355 14.2765C 11.905 14.2072 11.9991 14.1683 12.0974 14.1683L 17.5671 14.1683C 17.6653 14.1683 17.7594 14.1293 17.8289 14.06C 17.8983 13.9907 17.9373 13.8967 17.9373 13.7987L 17.9373 8.71894C 17.9373 8.62092 17.8983 8.52692 17.8289 8.45762C 17.7594 8.38832 17.6653 8.34938 17.5671 8.34938L 12.0974 8.34938C 11.9991 8.34938 11.905 8.31045 11.8355 8.24114C 11.7661 8.17184 11.7271 8.07784 11.7271 7.97983L 11.7271 0.369553C 11.7271 0.321023 11.7175 0.272967 11.6989 0.228131C 11.6803 0.183295 11.653 0.142558 11.6186 0.108242C 11.5842 0.0739256 11.5434 0.0467025 11.4985 0.0281308C 11.4535 0.00955902 11.4054 -1.72035e-06 11.3568 -1.72035e-06L 5.44145 -1.72035e-06C 5.39283 -1.72035e-06 5.34467 0.00955902 5.29975 0.0281308C 5.25482 0.0467025 5.214 0.0739256 5.17962 0.108242C 5.14523 0.142558 5.11795 0.183295 5.09934 0.228131C 5.08074 0.272967 5.07116 0.321023 5.07116 0.369553L 5.07116 7.97983C 5.07116 8.07784 5.03215 8.17184 4.9627 8.24114C 4.89326 8.31045 4.79908 8.34938 4.70087 8.34938L 0.370291 8.34938C 0.321663 8.34938 0.27352 8.35894 0.228594 8.37751C 0.183668 8.39609 0.142839 8.4233 0.108454 8.45762C 0.0740692 8.49194 0.0467914 8.53268 0.0281823 8.57751C 0.00957325 8.62235 -1.91534e-06 8.67041 -1.91534e-06 8.71894L -1.91534e-06 13.7987C -1.91534e-06 13.8472 0.00957325 13.8953 0.0281823 13.9401C 0.0467914 13.985 0.0740692 14.0257 0.108454 14.06C 0.142839 14.0943 0.183668 14.1216 0.228594 14.1401C 0.27352 14.1587 0.321663 14.1683 0.370291 14.1683L 4.70087 14.1683C 4.79908 14.1683 4.89326 14.2072 4.9627 14.2765C 5.03215 14.3458 5.07116 14.4398 5.07116 14.5378L 5.07116 31.816C 5.07116 36.877 7.79816 39.6455 12.9164 39.6455C 15.8756 39.6455 17.7993 38.9001 19.0137 37.8447C 19.067 37.7971 19.1052 37.7349 19.1236 37.6659C 19.142 37.597 19.1398 37.5241 19.1173 37.4563L 17.7899 33.2347Z"/>
<path id="path8_fill" d="M 14.4541 0C 9.64964 0 5.27513 1.53145 1.75419 4.77913C 1.70764 4.82285 1.67732 4.88104 1.6682 4.94418C 1.65908 5.00733 1.67169 5.07169 1.70398 5.12676L 4.13601 9.24821C 4.1575 9.28375 4.18668 9.31405 4.22141 9.3369C 4.25614 9.35974 4.29555 9.37456 4.33675 9.38026C 4.37795 9.38596 4.41991 9.38241 4.45956 9.36986C 4.49921 9.3573 4.53556 9.33608 4.56593 9.30771C 7.16427 6.87744 10.0607 5.69048 13.3777 5.69048C 17.6235 5.69048 20.5388 7.84203 20.5388 11.3841L 20.5388 15.2268C 20.5383 15.2817 20.5215 15.3353 20.4906 15.3807C 20.4597 15.4262 20.416 15.4615 20.365 15.4822C 20.3141 15.503 20.2581 15.5082 20.2042 15.4973C 20.1502 15.4864 20.1007 15.4599 20.0618 15.421C 17.8275 13.1692 14.4886 12.0167 10.6476 12.0167C 5.6266 12.0167 -1.1492e-06 14.9262 -1.1492e-06 21.9477C -1.1492e-06 28.7155 5.64857 32.0696 10.6476 32.0696C 14.4321 32.0696 17.7742 30.8169 20.0618 28.5276C 20.1007 28.4887 20.1502 28.4621 20.2042 28.4512C 20.2581 28.4404 20.3141 28.4456 20.365 28.4664C 20.416 28.4871 20.4597 28.5224 20.4906 28.5679C 20.5215 28.6133 20.5383 28.6668 20.5388 28.7217L 20.5388 31.033C 20.5388 31.1069 20.5683 31.1778 20.6206 31.2301C 20.673 31.2824 20.744 31.3118 20.8181 31.3118L 26.9154 31.3118C 26.9895 31.3118 27.0605 31.2824 27.1129 31.2301C 27.1653 31.1778 27.1947 31.1069 27.1947 31.033L 27.1947 11.0678C 27.1947 2.84367 21.2323 0 14.4541 0ZM 20.5388 24.2589C 20.5391 24.3209 20.5192 24.3813 20.4823 24.4312C 18.9478 26.4669 16.1298 27.516 13.2647 27.516C 9.52411 27.516 6.73749 25.3645 6.73749 22.0761C 6.73749 18.7219 9.52725 16.5735 13.2647 16.5735C 16.1455 16.5735 18.9635 17.6226 20.4823 19.6583C 20.5192 19.7082 20.5391 19.7686 20.5388 19.8306L 20.5388 24.2589Z"/>
</defs>
</svg>
